<svg width="224" height="100" viewBox="0 0 224 100" fill="none" xmlns="http://www.w3.org/2000/svg">
<g clip-path="url(#clip0_36_4)">
<path d="M168.486 0L202.362 34.3375V0H168.486Z" fill="#00A07A"/>
<mask id="mask0_36_4" style="mask-type:luminance" maskUnits="userSpaceOnUse" x="0" y="0" width="224" height="100">
<path d="M224 0H0V100H224V0Z" fill="white"/>
</mask>
<g mask="url(#mask0_36_4)">
<path d="M0.000149731 50.3356C-0.104591 46.1136 0.653274 41.9153 2.22612 38.0045C3.79897 34.0937 6.1528 30.5549 9.13972 27.6104C12.1482 24.5992 15.7277 22.2374 19.6619 20.6677C23.5961 19.0979 27.8034 18.3529 32.0296 18.4775C34.7732 18.4664 37.5091 18.7715 40.1846 19.3871C42.4116 19.8666 44.5758 20.6074 46.6336 21.5946C48.3419 22.4608 49.851 23.3123 51.1611 24.1491C52.2038 24.7797 53.1783 25.5196 54.0684 26.3566L54.9221 27.222L47.9987 38.6469C47.486 38.1861 46.7741 37.6092 45.8632 36.9162C44.1651 35.8014 42.3626 34.8592 40.482 34.1032C38.0403 32.9731 35.394 32.3687 32.7102 32.3283C27.1871 32.3283 22.9314 34.0594 19.9431 37.5216C16.962 40.9625 15.3629 45.4118 15.4618 49.99C15.3916 54.7561 17.0304 59.386 20.0739 63.0196C21.618 64.8697 23.5609 66.3354 25.7525 67.3037C27.9442 68.272 30.326 68.7169 32.7141 68.6041C35.5378 68.5833 38.3225 67.933 40.8705 66.6993C43.0635 65.7601 45.0957 64.4742 46.8913 62.8897L48.941 60.9849L56.6282 72.0655C56.3058 72.4583 55.9635 72.8339 55.6027 73.1907C54.64 74.0717 53.6278 74.8956 52.5712 75.6581C50.9939 76.8485 49.3227 77.9053 47.5745 78.818C45.3792 79.9018 43.0754 80.7434 40.7027 81.3283C37.8731 82.0795 34.9599 82.4577 32.0349 82.4535C22.5826 82.4535 14.8817 79.4235 8.93224 73.3635C2.9828 67.3034 0.00543577 59.6275 0.000149731 50.3356Z" fill="#622F88"/>
<path d="M129.598 73.5563L137.446 62.0564C137.958 62.5181 138.669 63.1089 139.579 63.8286C141.213 64.9574 142.957 65.9135 144.783 66.6818C147.047 67.7934 149.52 68.3979 152.035 68.4541C153.62 68.5009 155.186 68.0962 156.555 67.286C157.148 66.9217 157.634 66.4054 157.967 65.7893C158.299 65.1732 158.465 64.4791 158.447 63.7772C158.43 63.0753 158.23 62.3905 157.868 61.792C157.506 61.1935 156.994 60.7025 156.385 60.3686C154.821 59.2565 153.113 58.3689 151.309 57.7311C149.059 56.8812 146.854 55.9146 144.701 54.835C142.419 53.7146 140.212 52.4438 138.094 51.0308C135.999 49.5941 134.262 47.6849 133.018 45.453C131.633 43.01 130.926 40.2329 130.971 37.4158C130.901 34.8104 131.422 32.2234 132.494 29.8545C133.567 27.4855 135.161 25.3979 137.156 23.7526C141.488 20.1616 146.959 18.2871 152.553 18.4775C156.195 18.4406 159.816 19.0401 163.257 20.2497C165.729 21.0089 168.053 22.1933 170.129 23.7512L172.176 25.4806L165.852 37.8444C165.396 37.4417 164.756 36.9376 163.932 36.3321C162.421 35.3699 160.821 34.5592 159.155 33.9116C157.017 32.9516 154.711 32.4368 152.373 32.3979C150.77 32.3536 149.187 32.7716 147.81 33.6035C147.195 33.9753 146.691 34.5097 146.353 35.1495C146.015 35.7892 145.855 36.5101 145.891 37.2349C145.891 38.6182 146.829 39.8577 148.706 40.9535C150.909 42.2022 153.207 43.2718 155.577 44.1523C158.34 45.2178 161.045 46.43 163.681 47.7838C166.417 49.1953 168.774 51.257 170.553 53.7929C172.464 56.5291 173.451 59.8181 173.368 63.1696C173.407 65.7263 172.911 68.2625 171.911 70.6101C170.911 72.9577 169.431 75.0632 167.568 76.7873C163.7 80.5058 158.468 82.3651 151.871 82.3651C149.257 82.3722 146.651 82.0673 144.108 81.4569C141.94 80.9716 139.836 80.2316 137.837 79.252C136.3 78.4693 134.805 77.6036 133.359 76.6587C132.335 76.0266 131.39 75.2719 130.544 74.4109L129.598 73.5563Z" fill="#622F88"/>
<path d="M5.93752 97.6277C5.94852 98.0788 5.81956 98.522 5.56882 98.8949C5.30934 99.2621 4.9517 99.5466 4.53804 99.7147C4.05651 99.9125 3.54046 100.01 3.02095 100C2.86149 100 2.6659 99.9897 2.4342 99.9692C2.1222 99.9345 1.81306 99.8771 1.50914 99.7977C1.09878 99.6946 0.698151 99.5552 0.311851 99.3811V97.4629C0.678669 97.6952 1.0626 97.8985 1.46024 98.071C1.84301 98.2337 2.25441 98.3157 2.66943 98.3122C2.94164 98.3495 3.21749 98.2778 3.43854 98.1126C3.53979 98.0132 3.60181 97.8799 3.61298 97.7375C3.61171 97.6298 3.58353 97.5241 3.53107 97.4304C3.47861 97.3367 3.40359 97.258 3.313 97.2017C3.04007 97.0193 2.74743 96.8692 2.4408 96.7543C2.0535 96.5929 1.6815 96.396 1.32941 96.1662C1.01628 95.9597 0.750055 95.688 0.548401 95.3692C0.34091 95.0298 0.235728 94.6364 0.245775 94.2373C0.235787 93.8234 0.348425 93.4159 0.569148 93.0676C0.789871 92.7192 1.10854 92.4459 1.48403 92.2829C1.96619 92.0667 2.48993 91.9623 3.01698 91.9775C3.41683 91.9743 3.81578 92.0166 4.20634 92.1034C4.51515 92.1699 4.81729 92.2649 5.10893 92.3874C5.27776 92.4576 5.44119 92.5405 5.59789 92.6352V94.465C5.26568 94.2267 4.91165 94.0212 4.54068 93.8515C4.15088 93.6713 3.72687 93.5799 3.29846 93.5836C3.0762 93.5638 2.85413 93.6236 2.67075 93.7524C2.6094 93.8024 2.56004 93.8659 2.52639 93.9381C2.49275 94.0102 2.47568 94.0892 2.47649 94.169C2.47662 94.2465 2.49419 94.323 2.52785 94.3926C2.56151 94.4623 2.61038 94.5232 2.67075 94.5708C2.88553 94.7354 3.11888 94.8734 3.36586 94.9821C3.85439 95.2071 4.32962 95.4607 4.78913 95.7416C5.1174 95.9411 5.40205 96.2064 5.62564 96.5212C5.83684 96.8476 5.94303 97.2322 5.92959 97.6223" fill="#622F88"/>
<path d="M15.5264 95.9841C15.5327 96.6859 15.3617 97.3776 15.0295 97.9934C14.6876 98.616 14.173 99.1232 13.5494 99.4521C12.808 99.831 11.9847 100.015 11.1548 99.9879C10.3147 100.015 9.48202 99.8213 8.73778 99.4254C8.11532 99.0883 7.60396 98.5737 7.26694 97.9452C6.95211 97.3386 6.7876 96.6635 6.7876 95.9781C6.7876 95.2926 6.95211 94.6175 7.26694 94.0109C7.60307 93.3839 8.11425 92.8713 8.73646 92.5375C9.48226 92.1433 10.3155 91.9501 11.1561 91.9762C11.8044 91.965 12.4492 92.0735 13.0591 92.2963C13.5739 92.4828 14.0431 92.7793 14.4348 93.1657C14.7923 93.529 15.0705 93.9644 15.2515 94.4436C15.4375 94.9329 15.5321 95.453 15.5303 95.9774M13.1635 95.9774C13.1654 95.7038 13.1207 95.4319 13.0314 95.1737C12.9497 94.9374 12.818 94.722 12.6455 94.5427C12.4668 94.3602 12.252 94.2182 12.0151 94.1261C11.7397 94.022 11.4474 93.9716 11.1535 93.9775C10.8799 93.9536 10.6044 93.9877 10.3445 94.0775C10.0845 94.1673 9.84585 94.3109 9.64353 94.4991C9.44122 94.6873 9.27969 94.9161 9.1692 95.1709C9.0587 95.4257 9.00164 95.701 9.00164 95.9794C9.00164 96.2578 9.0587 96.5331 9.1692 96.7879C9.27969 97.0427 9.44122 97.2715 9.64353 97.4597C9.84585 97.6479 10.0845 97.7915 10.3445 97.8813C10.6044 97.9711 10.8799 98.0052 11.1535 97.9813C11.5323 97.9925 11.9075 97.9039 12.2424 97.7241C12.5346 97.5614 12.7725 97.3143 12.9256 97.0142C13.0856 96.6921 13.1654 96.3352 13.1582 95.9747" fill="#622F88"/>
<path d="M23.6405 99.3035C23.3279 99.4686 23.0004 99.6031 22.6626 99.7053C22.333 99.8059 21.9958 99.8785 21.6543 99.9223C21.3036 99.9666 20.9505 99.9885 20.5971 99.9879C19.985 99.9975 19.3757 99.9029 18.7945 99.708C18.2815 99.5313 17.8104 99.2485 17.4109 98.8775C17.0268 98.5219 16.7265 98.0833 16.5321 97.5942C16.3339 97.0824 16.2348 96.5366 16.2401 95.9868C16.2266 95.3799 16.3438 94.7774 16.5837 94.2213C16.8023 93.7304 17.1324 93.2989 17.547 92.9621C17.9657 92.6249 18.4451 92.3733 18.9584 92.2213C19.5003 92.0595 20.0626 91.9787 20.6275 91.9816C21.6441 92.0081 22.6492 92.2073 23.6009 92.571V94.6432C23.2397 94.4142 22.8615 94.214 22.4697 94.0445C22.0515 93.8766 21.6044 93.7955 21.1548 93.806C20.722 93.8018 20.2936 93.8933 19.8993 94.0739C19.5248 94.2425 19.201 94.5088 18.961 94.8455C18.7373 95.1761 18.614 95.5659 18.6062 95.9668C18.5985 96.3676 18.7067 96.762 18.9174 97.1013C19.1315 97.4356 19.4299 97.7057 19.7817 97.8836C20.1683 98.081 20.5964 98.1803 21.0292 98.1729C21.3859 98.1761 21.7415 98.1311 22.0864 98.0389C22.3758 97.9633 22.6576 97.8606 22.9282 97.7322C23.1696 97.6113 23.4043 97.4772 23.6313 97.3303L23.6405 99.3035Z" fill="#622F88"/>
<path d="M27.3064 92.082H24.9845V99.8888H27.3064V92.082Z" fill="#622F88"/>
<path d="M37.4821 99.8767H35.1033L34.4743 98.2948H31.1296L30.4913 99.8781H28.1125L31.5141 92.0699H34.0818L37.4821 99.8767ZM33.9417 96.9378L32.8118 94.0886L31.674 96.9392L33.9417 96.9378Z" fill="#622F88"/>
<path d="M44.1279 99.8794H38.2776V92.0726H40.5995V98.0094H44.1279V99.8794Z" fill="#622F88"/>
<path d="M50.7314 92.0713H48.4095V99.8781H50.7314V92.0713Z" fill="#622F88"/>
<path d="M61.4079 99.8714H59.086V95.3492L56.9927 97.9693H56.809L54.7078 95.3519V99.8741H52.4507V92.0673H54.5559L56.924 94.9955L59.3027 92.066H61.4092L61.4079 99.8714Z" fill="#622F88"/>
<path d="M69.7903 94.5173C69.7905 94.8065 69.7409 95.0934 69.6437 95.3652C69.5388 95.6524 69.3774 95.9149 69.1692 96.1368C68.9209 96.3952 68.6182 96.5934 68.2838 96.7168C67.8636 96.8739 67.418 96.9498 66.9702 96.9405H65.4478V99.8687H63.1246V92.062H66.9689C67.4169 92.052 67.8626 92.1284 68.2825 92.287C68.6177 92.4122 68.9208 92.6122 69.1692 92.8724C69.379 93.0979 69.5409 93.3646 69.645 93.656C69.7426 93.9324 69.7926 94.2237 69.793 94.5173M67.4262 94.5294C67.4432 94.3844 67.4222 94.2373 67.3651 94.1032C67.308 93.9691 67.2169 93.8527 67.1011 93.7658C66.7363 93.5989 66.3358 93.5284 65.9368 93.5609H65.4478V95.4362H65.9474C66.2456 95.4441 66.5437 95.4194 66.8367 95.3626C67.0144 95.3327 67.175 95.2373 67.2874 95.0947C67.3881 94.9232 67.4342 94.7244 67.4195 94.5254" fill="#622F88"/>
<path d="M78.3339 99.8634H75.9552L75.3261 98.2814H71.9814L71.3431 99.8647H68.9644L72.3659 92.0566H74.9336L78.3339 99.8634ZM74.7936 96.9244L73.6636 94.0752L72.5258 96.9257L74.7936 96.9244Z" fill="#622F88"/>
<path d="M85.8612 99.2739C85.5486 99.4391 85.2211 99.5737 84.8833 99.6758C84.5537 99.7765 84.2164 99.849 83.875 99.8928C83.5243 99.9371 83.1711 99.959 82.8177 99.9585C82.2051 99.968 81.5953 99.8729 81.0139 99.6771C80.5008 99.5007 80.0295 99.2179 79.6303 98.8466C79.2461 98.491 78.9458 98.0525 78.7514 97.5634C78.5533 97.0515 78.4542 96.5058 78.4594 95.9559C78.4459 95.3491 78.5631 94.7466 78.803 94.1904C79.0215 93.6995 79.3517 93.268 79.7664 92.9313C80.1851 92.5941 80.6644 92.3425 81.1777 92.1905C81.7196 92.0287 82.2819 91.9479 82.8468 91.9508C83.8635 91.9773 84.8686 92.1765 85.8202 92.5402V94.6124C85.4591 94.3833 85.0809 94.1831 84.689 94.0136C84.2709 93.8456 83.8237 93.7646 83.3741 93.7752C82.9414 93.771 82.513 93.8624 82.1187 94.0431C81.7441 94.2117 81.4204 94.4779 81.1804 94.8147C80.9567 95.1453 80.8333 95.5351 80.8256 95.9359C80.8178 96.3368 80.926 96.7312 81.1368 97.0704C81.3509 97.4047 81.6493 97.6747 82.0011 97.8527C82.3877 98.05 82.8158 98.1493 83.2486 98.142C83.6053 98.1452 83.9608 98.1002 84.3058 98.0081C84.5951 97.9326 84.877 97.8299 85.1476 97.7014C85.3889 97.5804 85.6236 97.4462 85.8506 97.2995L85.8612 99.2739Z" fill="#622F88"/>
<path d="M94.5778 93.948H91.7551V99.8553H89.4385V93.948H86.6105V92.0539H94.5726L94.5778 93.948Z" fill="#622F88"/>
<path d="M104.241 97.5821C104.252 98.0332 104.123 98.4765 103.872 98.8493C103.613 99.2167 103.255 99.5012 102.841 99.6691C102.36 99.8668 101.844 99.9639 101.324 99.9544C101.165 99.9544 100.969 99.9442 100.737 99.9236C100.425 99.8888 100.116 99.8315 99.8123 99.7522C99.4019 99.6492 99.0013 99.5098 98.615 99.3356V97.4214C98.9814 97.6537 99.3649 97.857 99.7621 98.0295C100.145 98.1923 100.556 98.2743 100.971 98.2707C101.243 98.3079 101.519 98.2363 101.74 98.0711C101.842 97.9717 101.904 97.8384 101.915 97.696C101.913 97.5883 101.885 97.4827 101.833 97.389C101.78 97.2954 101.705 97.2166 101.615 97.1602C101.342 96.9778 101.049 96.8277 100.743 96.7128C100.355 96.5513 99.9833 96.3545 99.6313 96.1247C99.3181 95.9182 99.0518 95.6465 98.8502 95.3277C98.6428 94.9883 98.5377 94.5949 98.5476 94.1958C98.5377 93.7819 98.6503 93.3744 98.871 93.0261C99.0917 92.6777 99.4104 92.4044 99.7859 92.2414C100.268 92.0248 100.793 91.9205 101.32 91.936C101.72 91.9326 102.119 91.9748 102.51 92.0619C102.818 92.1284 103.12 92.2234 103.412 92.3459C103.581 92.4158 103.745 92.4986 103.901 92.5937V94.4249C103.569 94.1865 103.215 93.981 102.844 93.8114C102.454 93.6315 102.03 93.54 101.602 93.5434C101.379 93.5239 101.157 93.5836 100.974 93.7122C100.913 93.7622 100.863 93.8256 100.829 93.8978C100.796 93.97 100.779 94.049 100.78 94.1288C100.78 94.2064 100.797 94.2829 100.831 94.3526C100.865 94.4222 100.913 94.4831 100.974 94.5307C101.188 94.6952 101.421 94.8333 101.668 94.9419C102.156 95.1671 102.631 95.4207 103.091 95.7015C103.419 95.9008 103.704 96.1661 103.927 96.4811C104.138 96.8075 104.244 97.1922 104.23 97.5821" fill="#622F88"/>
<path d="M112.258 94.4972C112.259 94.7863 112.209 95.0733 112.112 95.3451C112.007 95.6322 111.845 95.8947 111.637 96.1167C111.388 96.3752 111.085 96.5734 110.75 96.6967C110.33 96.8535 109.885 96.9289 109.437 96.9191H107.912V99.8473H105.59V92.0405H109.434C109.882 92.0308 110.328 92.1072 110.748 92.2655C111.083 92.3907 111.386 92.5907 111.635 92.8509C111.844 93.076 112.006 93.3422 112.11 93.6332C112.208 93.9096 112.258 94.2009 112.258 94.4945M109.891 94.5066C109.908 94.3616 109.887 94.2146 109.83 94.0805C109.773 93.9464 109.682 93.83 109.566 93.743C109.201 93.5765 108.801 93.506 108.402 93.5381H107.912V95.4134H108.413C108.711 95.4211 109.009 95.3964 109.302 95.3397C109.48 95.3098 109.64 95.2144 109.753 95.0718C109.853 94.9003 109.899 94.7015 109.885 94.5025" fill="#622F88"/>
<path d="M119.127 99.8446H113.321V92.0378H119.032V93.6037H115.643V95.0344H118.872V96.6056H115.639V98.2734H119.122L119.127 99.8446Z" fill="#622F88"/>
<path d="M127.351 99.2552C127.039 99.4203 126.711 99.5549 126.373 99.6571C126.044 99.7577 125.707 99.8303 125.365 99.8741C125.014 99.9184 124.661 99.9403 124.308 99.9397C123.696 99.9493 123.087 99.8547 122.505 99.6597C121.992 99.4832 121.52 99.2003 121.12 98.8292C120.737 98.4735 120.437 98.0349 120.243 97.546C120.045 97.0341 119.946 96.4884 119.951 95.9385C119.937 95.3317 120.055 94.7292 120.294 94.173C120.513 93.6822 120.843 93.2507 121.258 92.9139C121.677 92.5763 122.156 92.3243 122.669 92.1718C123.212 92.01 123.774 91.9292 124.34 91.932C125.356 91.9588 126.36 92.158 127.312 92.5214V94.5937C126.951 94.3646 126.572 94.1644 126.18 93.9949C125.763 93.8272 125.316 93.7461 124.867 93.7565C124.434 93.7523 124.006 93.8437 123.611 94.0243C123.237 94.1929 122.913 94.4592 122.673 94.7959C122.449 95.1266 122.326 95.5163 122.318 95.9172C122.311 96.318 122.419 96.7124 122.63 97.0517C122.844 97.386 123.142 97.6561 123.494 97.834C123.88 98.0316 124.309 98.1309 124.741 98.1233C125.098 98.1265 125.454 98.0815 125.799 97.9893C126.088 97.9137 126.37 97.811 126.64 97.6826C126.881 97.5616 127.116 97.4274 127.342 97.2807L127.351 99.2552Z" fill="#622F88"/>
<path d="M131.019 92.0338H128.695V99.8406H131.019V92.0338Z" fill="#622F88"/>
<path d="M141.193 99.8339H138.814L138.185 98.2519H134.84L134.202 99.8352H131.823L135.226 92.0271H137.793L141.193 99.8339ZM137.651 96.895L136.523 94.0458L135.385 96.8963L137.651 96.895Z" fill="#622F88"/>
<path d="M147.837 99.8286H141.987V92.0218H144.309V97.9586H147.837V99.8286Z" fill="#622F88"/>
<path d="M151.293 92.0244H148.97V99.8312H151.293V92.0244Z" fill="#622F88"/>
<path d="M158.394 97.5567C158.405 98.0078 158.276 98.451 158.025 98.8238C157.766 99.1912 157.408 99.4757 156.994 99.6436C156.513 99.8413 155.997 99.9383 155.477 99.929C155.318 99.929 155.122 99.9187 154.89 99.8982C154.578 99.8634 154.269 99.8061 153.965 99.7267C153.555 99.6237 153.154 99.4842 152.768 99.3101V97.3959C153.134 97.6276 153.518 97.8305 153.915 98.0027C154.298 98.1655 154.709 98.2475 155.124 98.2439C155.397 98.2815 155.673 98.2099 155.895 98.0442C155.996 97.9448 156.058 97.8115 156.069 97.6692C156.068 97.5615 156.039 97.4559 155.987 97.3622C155.935 97.2685 155.86 97.1898 155.769 97.1334C155.496 96.951 155.203 96.8009 154.897 96.686C154.51 96.5246 154.138 96.3277 153.785 96.0979C153.472 95.8919 153.206 95.6207 153.004 95.3022C152.797 94.9629 152.691 94.5695 152.701 94.1703C152.691 93.7564 152.803 93.3491 153.024 93.0008C153.245 92.6524 153.563 92.3791 153.939 92.216C154.421 91.9999 154.946 91.896 155.473 91.9119C155.873 91.9085 156.272 91.9508 156.662 92.0378C156.971 92.1042 157.273 92.1993 157.565 92.3218C157.734 92.3917 157.897 92.4745 158.054 92.5696V94.4007C157.722 94.1622 157.368 93.9568 156.997 93.7872C156.607 93.6072 156.183 93.5158 155.755 93.5193C155.532 93.4997 155.31 93.5594 155.127 93.6881C155.066 93.7385 155.017 93.8021 154.983 93.8741C154.95 93.9462 154.932 94.025 154.933 94.1047C154.933 94.1823 154.95 94.2588 154.984 94.3284C155.017 94.3981 155.066 94.459 155.127 94.5065C155.341 94.6711 155.574 94.8092 155.821 94.9178C156.309 95.143 156.784 95.3965 157.244 95.6773C157.572 95.8767 157.857 96.142 158.08 96.4569C158.291 96.7834 158.397 97.1681 158.383 97.558" fill="#622F88"/>
<path d="M167.127 93.9132H164.305V99.8205H161.988V93.9132H159.164V92.0151H167.126L167.127 93.9132Z" fill="#622F88"/>
<path d="M173.643 97.55C173.654 98.0011 173.525 98.4444 173.274 98.8172C173.014 99.1846 172.657 99.469 172.243 99.637C171.761 99.8347 171.245 99.9317 170.726 99.9223C170.566 99.9223 170.372 99.9116 170.139 99.8915C169.827 99.8567 169.518 99.7993 169.214 99.72C168.804 99.617 168.403 99.4776 168.017 99.3035V97.3946C168.383 97.6268 168.767 97.8301 169.164 98.0028C169.547 98.1655 169.958 98.2476 170.373 98.2439C170.645 98.2812 170.921 98.2096 171.142 98.0443C171.244 97.945 171.305 97.8116 171.317 97.6692C171.315 97.5615 171.287 97.4559 171.235 97.3622C171.182 97.2686 171.107 97.1898 171.017 97.1334C170.744 96.951 170.451 96.8009 170.145 96.686C169.757 96.5247 169.385 96.3278 169.033 96.098C168.72 95.8917 168.454 95.6199 168.252 95.3009C168.044 94.9616 167.939 94.5683 167.948 94.169C167.938 93.7552 168.051 93.3478 168.272 92.9995C168.492 92.6511 168.811 92.3778 169.186 92.2146C169.669 91.998 170.193 91.8937 170.721 91.9092C171.121 91.9059 171.52 91.9481 171.91 92.0351C172.219 92.1016 172.521 92.1966 172.813 92.3191C172.982 92.3891 173.145 92.4719 173.302 92.5669V94.3981C172.969 94.1597 172.615 93.9543 172.244 93.7846C171.854 93.6047 171.431 93.5133 171.002 93.5167C170.78 93.497 170.558 93.5568 170.374 93.6855C170.313 93.7355 170.264 93.799 170.23 93.8711C170.196 93.9433 170.179 94.0222 170.18 94.102C170.18 94.1796 170.198 94.2561 170.232 94.3257C170.265 94.3954 170.314 94.4563 170.374 94.5039C170.589 94.6686 170.822 94.8067 171.07 94.9152C171.558 95.1403 172.033 95.3939 172.493 95.6747C172.821 95.874 173.106 96.1393 173.329 96.4543C173.54 96.7807 173.646 97.1654 173.632 97.5553" fill="#622F88"/>
<path d="M176.492 8.11353V25.7819H193.916L176.492 8.11353Z" fill="#622F88"/>
<path d="M93.4916 66.2492L110.088 45.8883V80.6839H126.887V20.6207H110.04L93.4532 42.2461L93.4916 66.2492Z" fill="#00A07A"/>
<path d="M93.489 66.2492L76.4005 45.8883V80.6839H60.1195V20.6207H76.3212L93.4599 42.2461V66.2733" fill="#622F88"/>
<path d="M212.988 1.58736H210.256V9.36602H208.573V1.58736H205.841V0.183533H212.989L212.988 1.58736Z" fill="#622F88"/>
<path d="M224 0.183523V9.36467H222.516V3.43456C222.516 3.19702 222.529 2.94072 222.554 2.66567L219.815 7.87913C219.763 7.99414 219.679 8.09106 219.573 8.15778C219.467 8.22449 219.344 8.25803 219.219 8.2542H218.981C218.856 8.25821 218.733 8.22474 218.627 8.15801C218.521 8.09127 218.437 7.99425 218.385 7.87913L215.61 2.64692C215.623 2.78087 215.634 2.9242 215.641 3.0595C215.649 3.19479 215.653 3.31937 215.653 3.43456V9.36467H214.169V0.183523H215.441C215.516 0.183523 215.581 0.183523 215.635 0.183523C215.685 0.187113 215.734 0.197939 215.782 0.215672C215.827 0.233842 215.868 0.262244 215.9 0.298723C215.942 0.34463 215.976 0.396007 216.004 0.451429L218.717 5.54968C218.787 5.68364 218.849 5.82563 218.913 5.96896C218.978 6.11229 219.034 6.26098 219.092 6.41368C219.151 6.25696 219.211 6.10559 219.274 5.95958C219.338 5.81357 219.406 5.67292 219.474 5.53763L222.15 0.447411C222.177 0.391375 222.213 0.339886 222.256 0.294704C222.29 0.258604 222.331 0.230295 222.377 0.211653C222.424 0.19392 222.474 0.183095 222.524 0.179504C222.578 0.179504 222.643 0.179504 222.718 0.179504L224 0.183523Z" fill="#622F88"/>
</g>
</g>
<defs>
<clipPath id="clip0_36_4">
<rect width="224" height="100" fill="white"/>
</clipPath>
</defs>
</svg>
